<?xml version="1.0" encoding="UTF-8"?>
<svg id="Layer_1" xmlns="http://www.w3.org/2000/svg" viewBox="0 0 497.95 441.18">
  <defs>
    <style>
      .cls-1 {
        fill: none;
        stroke: #000;
        stroke-miterlimit: 10;
      }

      .cls-2 {
        fill: #c63e3e;
      }
    </style>
  </defs>
  <polygon class="cls-2" points="364.46 441.18 115.48 438.67 0 218.09 133.49 0 382.47 2.5 497.95 223.09 364.46 441.18"/>
  <path class="cls-1" d="M248.98,119.55c-28.7,77.29,0,109.14,0,109.14,0,0,16.59,17.65,35.44-8.1"/>
  <path class="cls-1" d="M155.78,76.33s31-6,66,28-77.93,0-77.93,0c0,0-28.07-15,11.93-28Z"/>
  <path class="cls-1" d="M308.78,111.33c51-22,46.5-35.41,46.5-35.41,0,0-12.79-15.41-61.14,0s-14.86,35.41-14.86,35.41h29.5Z"/>
  <path class="cls-1" d="M149.78,293.33c210,22,261-34,261-34"/>
  <ellipse cx="173.28" cy="95.83" rx="7.5" ry="5.5"/>
  <ellipse cx="308.28" cy="87.83" rx="7" ry="3"/>
</svg>